# xmcd
#
# Track frame offsets:
#	150
#	14861
#	22814
#	32605
#	46376
#	61458
#	73467
#	85327
#	99817
#	111416
#	122795
#	136559
#	148988
#	161044
#	173684
#	187970
#	210906
#
# Disc length: 2923 seconds
#
# Revision: 1
# Processed by: cddbd v1.5.1PL0 Copyright (c) Steve Scherf et al.
# Submitted via: CDex 1.50Beta5
#
DISCID=ec0b6911
DTITLE=サウンドトラック - キノの旅 -the Beautiful World- サウンドコレクション
DYEAR=1900
DGENRE=Soundtrack
TTITLE0=The Beautiful World
TTITLE1=Not again
TTITLE2="She" is Waiting For You.
TTITLE3=One-way Mission
TTITLE4=For Sale
TTITLE5=Free Lance
TTITLE6=Intermission
TTITLE7=Happiness
TTITLE8=Tomorrow Never Comes.
TTITLE9=I Need You.
TTITLE10=Sakura
TTITLE11=Toss-up
TTITLE12=Stand-bys
TTITLE13=Will
TTITLE14=Chances
TTITLE15=セカイハカガヤク
TTITLE16=For You
EXTD=
EXTT0=
EXTT1=
EXTT2=
EXTT3=
EXTT4=
EXTT5=
EXTT6=
EXTT7=
EXTT8=
EXTT9=
EXTT10=
EXTT11=
EXTT12=
EXTT13=
EXTT14=
EXTT15=
EXTT16=
PLAYORDER=
